{
  "accessors": [
    {
      "bufferView": 0,
      "componentType": 5123,
      "count": 13482,
      "max": [
        13481.0
      ],
      "min": [
        0.0
      ],
      "name": "buffer-0-accessor-indices-buffer-0-mesh-0",
      "normalized": false,
      "type": "SCALAR"
    },
    {
      "bufferView": 1,
      "componentType": 5126,
      "count": 2211,
      "max": [
        0.8245713377524102,
        0.8193690888535416,
        -1.2618227850032757
      ],
      "min": [
        -0.21471476992594432,
        -0.7247217766106301,
        -1.9769999943082295
      ],
      "name": "buffer-0-accessor-position-buffer-0-mesh-0",
      "normalized": false,
      "type": "VEC3"
    },
    {
      "bufferView": 1,
      "byteOffset": 26532,
      "componentType": 5126,
      "count": 2211,
      "name": "buffer-0-accessor-normal-buffer-0-mesh-0",
      "normalized": true,
      "type": "VEC3"
    },
    {
      "bufferView": 1,
      "byteOffset": 53064,
      "componentType": 5126,
      "count": 2211,
      "name": "buffer-0-accessor-color-buffer-0-mesh-0",
      "normalized": true,
      "type": "VEC3"
    }
  ],
  "asset": {
    "generator": "Open3D",
    "version": "2.0"
  },
  "bufferViews": [
    {
      "buffer": 0,
      "byteLength": 26964,
      "name": "buffer-0-bufferview-ushort",
      "target": 34963
    },
    {
      "buffer": 0,
      "byteLength": 79596,
      "byteOffset": 26964,
      "byteStride": 12,
      "name": "buffer-0-bufferview-vec3",
      "target": 34962
    }
  ],
  "buffers": [
    {
      "byteLength": 106560,
      "uri": "data:application/octet-stream;base64,"
    }
  ],
  "meshes": [
    {
      "primitives": [
        {
          "attributes": {
            "COLOR_0": 3,
            "NORMAL": 2,
            "POSITION": 1
          },
          "indices": 0,
          "mode": 4
        }
      ]
    }
  ],
  "nodes": [
    {
      "mesh": 0
    }
  ],
  "scene": 0,
  "scenes": [
    {
      "nodes": [
        0
      ]
    }
  ]
}
