{
  "accessors": [
    {
      "bufferView": 0,
      "componentType": 5123,
      "count": 25470,
      "max": [
        25469.0
      ],
      "min": [
        0.0
      ],
      "name": "buffer-0-accessor-indices-buffer-0-mesh-0",
      "normalized": false,
      "type": "SCALAR"
    },
    {
      "bufferView": 1,
      "componentType": 5126,
      "count": 5329,
      "max": [
        0.8247942409816239,
        0.8256814042253277,
        -1.2270362503218868
      ],
      "min": [
        -0.21471476992594432,
        -0.72489535859052,
        -1.9769999943082295
      ],
      "name": "buffer-0-accessor-position-buffer-0-mesh-0",
      "normalized": true,
      "type": "VEC3"
    },
    {
      "bufferView": 1,
      "byteOffset": 63948,
      "componentType": 5126,
      "count": 5329,
      "name": "buffer-0-accessor-normal-buffer-0-mesh-0",
      "normalized": true,
      "type": "VEC3"
    },
    {
      "bufferView": 1,
      "byteOffset": 127896,
      "componentType": 5126,
      "count": 5329,
      "name": "buffer-0-accessor-color-buffer-0-mesh-0",
      "normalized": true,
      "type": "VEC3"
    }
  ],
  "asset": {
    "generator": "Open3D",
    "version": "2.0"
  },
  "bufferViews": [
    {
      "buffer": 0,
      "byteLength": 50940,
      "name": "buffer-0-bufferview-ushort",
      "target": 34963
    },
    {
      "buffer": 0,
      "byteLength": 191844,
      "byteOffset": 50940,
      "byteStride": 12,
      "name": "buffer-0-bufferview-vec3",
      "target": 34962
    }
  ],
  "buffers": [
    {
      "byteLength": 242784,
      "uri": "data:application/octet-stream;base64,"
    }
  ],
  "meshes": [
    {
      "primitives": [
        {
          "attributes": {
            "COLOR_0": 3,
            "NORMAL": 2,
            "POSITION": 1
          },
          "indices": 0,
          "mode": 4
        }
      ]
    }
  ],
  "nodes": [
    {
      "mesh": 0
    }
  ],
  "scene": 0,
  "scenes": [
    {
      "nodes": [
        0
      ]
    }
  ]
}
